<svg preserveAspectRatio="none" overflow="visible" style="display: block;" width="28" height="28" viewBox="0 0 28 28" fill="none" xmlns="http://www.w3.org/2000/svg">
<g id="Frame" clip-path="url(#clip0_0_18)">
<g id="Union" filter="url(#filter0_d_0_18)">
<mask id="path-1-outside-1_0_18" maskUnits="userSpaceOnUse" x="4" y="5" width="18" height="18" fill="black">
<rect fill="white" x="4" y="5" width="18" height="18"/>
<path d="M13 6C13.5523 6 14 6.44772 14 7V13H20C20.5523 13 21 13.4477 21 14C21 14.5523 20.5523 15 20 15H14V21C14 21.5523 13.5523 22 13 22C12.4477 22 12 21.5523 12 21V15H6C5.44772 15 5 14.5523 5 14C5 13.4477 5.44772 13 6 13H12V7C12 6.44772 12.4477 6 13 6Z"/>
</mask>
<path d="M13 6C13.5523 6 14 6.44772 14 7V13H20C20.5523 13 21 13.4477 21 14C21 14.5523 20.5523 15 20 15H14V21C14 21.5523 13.5523 22 13 22C12.4477 22 12 21.5523 12 21V15H6C5.44772 15 5 14.5523 5 14C5 13.4477 5.44772 13 6 13H12V7C12 6.44772 12.4477 6 13 6Z" fill="#272E3E"/>
<path d="M13 6V5H13L13 6ZM14 7L13 7V7H14ZM14 13H13V14H14V13ZM14 15V14H13V15H14ZM14 21H15V21H14ZM13 22V23V23V22ZM12 21H13V21H12ZM12 15H13V14H12V15ZM12 13V14H13V13H12ZM12 7L11 7V7H12ZM13 6V7V7L14 7H15C15 5.89543 14.1046 5 13 5V6ZM14 7H13V13H14H15V7H14ZM14 13V14H20V13V12H14V13ZM20 13V14H21H22C22 12.8954 21.1046 12 20 12V13ZM21 14H20V15V16C21.1046 16 22 15.1046 22 14H21ZM20 15V14H14V15V16H20V15ZM14 15H13V21H14H15V15H14ZM14 21H13H13L13 22V23C14.1046 23 15 22.1046 15 21H14ZM13 22V21V21H12H11C11 22.1046 11.8954 23 13 23V22ZM12 21H13V15H12H11V21H12ZM12 15V14H6V15V16H12V15ZM6 15V14H5H4C4 15.1046 4.89543 16 6 16V15ZM5 14H6V13V12C4.89543 12 4 12.8954 4 14H5ZM6 13V14H12V13V12H6V13ZM12 13H13V7H12H11V13H12ZM12 7H13V7V6L13 5C11.8954 5 11 5.89543 11 7L12 7Z" fill="white" mask="url(#path-1-outside-1_0_18)"/>
</g>
</g>
<defs>
<filter id="filter0_d_0_18" x="0" y="3" width="26" height="26" filterUnits="userSpaceOnUse" color-interpolation-filters="sRGB">
<feFlood flood-opacity="0" result="BackgroundImageFix"/>
<feColorMatrix in="SourceAlpha" type="matrix" values="0 0 0 0 0 0 0 0 0 0 0 0 0 0 0 0 0 0 127 0" result="hardAlpha"/>
<feOffset dy="2"/>
<feGaussianBlur stdDeviation="2"/>
<feComposite in2="hardAlpha" operator="out"/>
<feColorMatrix type="matrix" values="0 0 0 0 0.870588 0 0 0 0 0.32549 0 0 0 0 0.529412 0 0 0 1 0"/>
<feBlend mode="normal" in2="BackgroundImageFix" result="effect1_dropShadow_0_18"/>
<feBlend mode="normal" in="SourceGraphic" in2="effect1_dropShadow_0_18" result="shape"/>
</filter>
<clipPath id="clip0_0_18">
<rect width="28" height="28" fill="white"/>
</clipPath>
</defs>
</svg>
